<svg version="1.1" xmlns="http://www.w3.org/2000/svg" viewBox="0 0 869.1340439934853 229.7465300483184" width="869.1340439934853" height="229.7465300483184">
  <!-- svg-source:excalidraw -->
  
  <defs>
    <style class="style-fonts">
      @font-face {
        font-family: "Virgil";
        src: url("https://excalidraw.com/Virgil.woff2");
      }
      @font-face {
        font-family: "Cascadia";
        src: url("https://excalidraw.com/Cascadia.woff2");
      }
      @font-face {
        font-family: "Assistant";
        src: url("https://excalidraw.com/Assistant-Regular.woff2");
      }
    </style>
    
  </defs>
  <rect x="0" y="0" width="869.1340439934853" height="229.7465300483184" fill="#ffffff"></rect><g transform="translate(258.78192631596096 17.682102237785216) rotate(0 18.625 13)"><text x="0" y="18.52" font-family="Virgil, Segoe UI Emoji" font-size="20px" fill="#000000" text-anchor="start" style="white-space: pre;" direction="ltr" dominant-baseline="alphabetic">API</text></g><g transform="translate(33.04630671335474 12.954654706840415) rotate(0 21.75 13)"><text x="0" y="18.52" font-family="Virgil, Segoe UI Emoji" font-size="20px" fill="#000000" text-anchor="start" style="white-space: pre;" direction="ltr" dominant-baseline="alphabetic">Core</text></g><g transform="translate(442.5614490814331 13.54558564820843) rotate(0 45.96875 13)"><text x="0" y="18.52" font-family="Virgil, Segoe UI Emoji" font-size="20px" fill="#000000" text-anchor="start" style="white-space: pre;" direction="ltr" dominant-baseline="alphabetic">Extension</text></g><g transform="translate(713.207820228013 10) rotate(0 55.44791793823242 13)"><text x="0" y="18.52" font-family="Virgil, Segoe UI Emoji" font-size="20px" fill="#000000" text-anchor="start" style="white-space: pre;" direction="ltr" dominant-baseline="alphabetic">Environment</text></g><g stroke-linecap="round"><g transform="translate(702.4106960378073 10.133930681676361) rotate(0 -80.2389759694313 0.40724388611556606)"><path d="M0.16 1.13 C-26.56 1.23, -134.35 0.83, -161.05 0.67 M-1.21 0.67 C-28.08 0.97, -135.74 2.06, -162.29 2.13" stroke="#000000" stroke-width="1" fill="none"></path></g><g transform="translate(702.4106960378073 10.133930681676361) rotate(0 -80.2389759694313 0.40724388611556606)"><path d="M-138.86 -6.59 C-142.59 -5.42, -150.31 -1.63, -162.29 2.13 M-138.86 -6.59 C-144.25 -4.47, -149.29 -2.39, -162.29 2.13" stroke="#000000" stroke-width="1" fill="none"></path></g><g transform="translate(702.4106960378073 10.133930681676361) rotate(0 -80.2389759694313 0.40724388611556606)"><path d="M-138.74 10.51 C-142.5 7.59, -150.25 7.3, -162.29 2.13 M-138.74 10.51 C-144.22 8.49, -149.28 6.43, -162.29 2.13" stroke="#000000" stroke-width="1" fill="none"></path></g></g><mask></mask><g stroke-linecap="round"><g transform="translate(543.4012099096975 35.970939232002365) rotate(0 78.36203354144857 -1.0271373819641099)"><path d="M-0.24 0.61 C26.05 0.19, 131.24 -1.98, 157.25 -2.26 M-1.82 -0.12 C24.4 -0.37, 129.9 -0.37, 156.58 -0.83" stroke="#000000" stroke-width="1" fill="none"></path></g><g transform="translate(543.4012099096975 35.970939232002365) rotate(0 78.36203354144857 -1.0271373819641099)"><path d="M133.15 7.9 C140.23 6.56, 144.95 1.95, 156.58 -0.83 M133.15 7.9 C143.02 4.24, 150.36 1.88, 156.58 -0.83" stroke="#000000" stroke-width="1" fill="none"></path></g><g transform="translate(543.4012099096975 35.970939232002365) rotate(0 78.36203354144857 -1.0271373819641099)"><path d="M133.02 -9.2 C140.16 -6.1, 144.92 -6.28, 156.58 -0.83 M133.02 -9.2 C143.08 -6.32, 150.47 -2.16, 156.58 -0.83" stroke="#000000" stroke-width="1" fill="none"></path></g></g><mask></mask><g stroke-linecap="round"><g transform="translate(430.7428302540716 28.42681702992661) rotate(0 -63.22654752050903 -0.669728985066115)"><path d="M0.9 0.58 C-20.3 0.31, -106.17 -1.46, -127.2 -1.81 M-0.09 -0.16 C-20.9 -0.25, -103.98 -0.5, -124.89 -0.51" stroke="#000000" stroke-width="1" fill="none"></path></g><g transform="translate(430.7428302540716 28.42681702992661) rotate(0 -63.22654752050903 -0.669728985066115)"><path d="M-101.38 -9.02 C-107.46 -7.55, -116.25 -1.88, -124.89 -0.51 M-101.38 -9.02 C-108.81 -6.08, -115.8 -4.58, -124.89 -0.51" stroke="#000000" stroke-width="1" fill="none"></path></g><g transform="translate(430.7428302540716 28.42681702992661) rotate(0 -63.22654752050903 -0.669728985066115)"><path d="M-101.41 8.08 C-107.46 4.43, -116.24 4.98, -124.89 -0.51 M-101.41 8.08 C-108.74 6.09, -115.73 2.66, -124.89 -0.51" stroke="#000000" stroke-width="1" fill="none"></path></g></g><mask></mask><g transform="translate(441.37958719869687 63.74653004831839) rotate(0 83.79166412353516 78)"><text x="0" y="18.52" font-family="Virgil, Segoe UI Emoji" font-size="20px" fill="#000000" text-anchor="start" style="white-space: pre;" direction="ltr" dominant-baseline="alphabetic">+ alternative</text><text x="0" y="44.519999999999996" font-family="Virgil, Segoe UI Emoji" font-size="20px" fill="#000000" text-anchor="start" style="white-space: pre;" direction="ltr" dominant-baseline="alphabetic">  implementations</text><text x="0" y="70.52" font-family="Virgil, Segoe UI Emoji" font-size="20px" fill="#000000" text-anchor="start" style="white-space: pre;" direction="ltr" dominant-baseline="alphabetic">+ adapters</text><text x="0" y="96.52" font-family="Virgil, Segoe UI Emoji" font-size="20px" fill="#000000" text-anchor="start" style="white-space: pre;" direction="ltr" dominant-baseline="alphabetic">+ drivers</text><text x="0" y="122.52" font-family="Virgil, Segoe UI Emoji" font-size="20px" fill="#000000" text-anchor="start" style="white-space: pre;" direction="ltr" dominant-baseline="alphabetic">+ integrations</text><text x="0" y="148.52" font-family="Virgil, Segoe UI Emoji" font-size="20px" fill="#000000" text-anchor="start" style="white-space: pre;" direction="ltr" dominant-baseline="alphabetic">...</text></g><g transform="translate(715.5715439934853 60.22913001628683) rotate(0 71.78125 52)"><text x="0" y="18.52" font-family="Virgil, Segoe UI Emoji" font-size="20px" fill="#000000" text-anchor="start" style="white-space: pre;" direction="ltr" dominant-baseline="alphabetic">+ storage</text><text x="0" y="44.519999999999996" font-family="Virgil, Segoe UI Emoji" font-size="20px" fill="#000000" text-anchor="start" style="white-space: pre;" direction="ltr" dominant-baseline="alphabetic">+ network</text><text x="0" y="70.52" font-family="Virgil, Segoe UI Emoji" font-size="20px" fill="#000000" text-anchor="start" style="white-space: pre;" direction="ltr" dominant-baseline="alphabetic">+ side effects</text><text x="0" y="96.52" font-family="Virgil, Segoe UI Emoji" font-size="20px" fill="#000000" text-anchor="start" style="white-space: pre;" direction="ltr" dominant-baseline="alphabetic">...</text></g><g transform="translate(233.96282677850172 55.50168248534192) rotate(0 60.96875 52)"><text x="0" y="18.52" font-family="Virgil, Segoe UI Emoji" font-size="20px" fill="#000000" text-anchor="start" style="white-space: pre;" direction="ltr" dominant-baseline="alphabetic">+ interfaces</text><text x="0" y="44.519999999999996" font-family="Virgil, Segoe UI Emoji" font-size="20px" fill="#000000" text-anchor="start" style="white-space: pre;" direction="ltr" dominant-baseline="alphabetic">+ tests</text><text x="0" y="70.52" font-family="Virgil, Segoe UI Emoji" font-size="20px" fill="#000000" text-anchor="start" style="white-space: pre;" direction="ltr" dominant-baseline="alphabetic">+ DI</text><text x="0" y="96.52" font-family="Virgil, Segoe UI Emoji" font-size="20px" fill="#000000" text-anchor="start" style="white-space: pre;" direction="ltr" dominant-baseline="alphabetic">...</text></g><g transform="translate(10 56.683544368078174) rotate(0 98.97916412353516 52)"><text x="0" y="18.52" font-family="Virgil, Segoe UI Emoji" font-size="20px" fill="#000000" text-anchor="start" style="white-space: pre;" direction="ltr" dominant-baseline="alphabetic">+ base functionality</text><text x="0" y="44.519999999999996" font-family="Virgil, Segoe UI Emoji" font-size="20px" fill="#000000" text-anchor="start" style="white-space: pre;" direction="ltr" dominant-baseline="alphabetic">+ bootstrapping</text><text x="0" y="70.52" font-family="Virgil, Segoe UI Emoji" font-size="20px" fill="#000000" text-anchor="start" style="white-space: pre;" direction="ltr" dominant-baseline="alphabetic">+ implementation</text><text x="0" y="96.52" font-family="Virgil, Segoe UI Emoji" font-size="20px" fill="#000000" text-anchor="start" style="white-space: pre;" direction="ltr" dominant-baseline="alphabetic">...</text></g><g stroke-linecap="round"><g transform="translate(86.2300914364821 26.682102237785102) rotate(0 81.54846990879474 0.5909309413680717)"><path d="M1.15 1.03 C28.23 0.98, 135.12 0.93, 162.31 0.9 M0.3 0.52 C27.77 1.16, 137.3 2.04, 164.61 2.29" stroke="#000000" stroke-width="1" fill="none"></path></g><g transform="translate(86.2300914364821 26.682102237785102) rotate(0 81.54846990879474 0.5909309413680717)"><path d="M141.05 10.64 C149.49 6.69, 154.12 7.58, 164.61 2.29 M141.05 10.64 C147.13 7.79, 154.77 7.14, 164.61 2.29" stroke="#000000" stroke-width="1" fill="none"></path></g><g transform="translate(86.2300914364821 26.682102237785102) rotate(0 81.54846990879474 0.5909309413680717)"><path d="M141.19 -6.46 C149.77 -5.47, 154.36 0.37, 164.61 2.29 M141.19 -6.46 C147.3 -4.65, 154.9 -0.63, 164.61 2.29" stroke="#000000" stroke-width="1" fill="none"></path></g></g><mask></mask></svg>