<svg version="1.1" xmlns="http://www.w3.org/2000/svg" viewBox="0 0 869.1382096428994 178.36564660586328" width="869.1382096428994" height="178.36564660586328">
  <!-- svg-source:excalidraw -->

  <defs>
    <style class="style-fonts">
      @font-face {
      font-family: "Virgil";
      src: url("https://excalidraw.com/Virgil.woff2");
      }
      @font-face {
      font-family: "Cascadia";
      src: url("https://excalidraw.com/Cascadia.woff2");
      }
    </style>
  </defs>
  <rect x="0" y="0" width="869.1382096428994" height="178.36564660586328" fill="#ffffff"></rect><g transform="translate(258.78192631596096 17.682102237785216) rotate(0 18.616666793823242 13)"><text x="0" y="0" font-family="Virgil, Segoe UI Emoji" font-size="20px" fill="#000000" text-anchor="start" style="white-space: pre;" direction="ltr" dominant-baseline="text-before-edge">API</text></g><g transform="translate(33.04630671335474 12.954654706840415) rotate(0 21.75 13)"><text x="0" y="0" font-family="Virgil, Segoe UI Emoji" font-size="20px" fill="#000000" text-anchor="start" style="white-space: pre;" direction="ltr" dominant-baseline="text-before-edge">Core</text></g><g transform="translate(442.5614490814331 13.54558564820843) rotate(0 45.974998474121094 13)"><text x="0" y="0" font-family="Virgil, Segoe UI Emoji" font-size="20px" fill="#000000" text-anchor="start" style="white-space: pre;" direction="ltr" dominant-baseline="text-before-edge">Extension</text></g><g transform="translate(713.207820228013 10) rotate(0 55.45833206176758 13)"><text x="0" y="0" font-family="Virgil, Segoe UI Emoji" font-size="20px" fill="#000000" text-anchor="start" style="white-space: pre;" direction="ltr" dominant-baseline="text-before-edge">Environment</text></g><g stroke-linecap="round"><g transform="translate(702.4106960378073 10.133930681676361) rotate(0 -81.06711567296122 1.3957165950314447)"><path d="M0.16 1.13 C-26.56 1.23, -134.35 0.83, -161.05 0.67 M-1.21 0.67 C-28.08 0.97, -135.74 2.06, -162.29 2.13" stroke="#000000" stroke-width="1" fill="none"></path></g><g transform="translate(702.4106960378073 10.133930681676361) rotate(0 -81.06711567296122 1.3957165950314447)"><path d="M-132.3 -9.28 C-141.14 -5.03, -148.77 -2.65, -162.05 2.64 M-134.94 -8.9 C-143.36 -5.43, -151.26 -2.26, -162.73 1.51" stroke="#000000" stroke-width="1" fill="none"></path></g><g transform="translate(702.4106960378073 10.133930681676361) rotate(0 -81.06711567296122 1.3957165950314447)"><path d="M-132.16 11.24 C-141.04 10.59, -148.7 8.06, -162.05 2.64 M-134.79 11.62 C-143.44 8.98, -151.38 6.04, -162.73 1.51" stroke="#000000" stroke-width="1" fill="none"></path></g></g><mask></mask><g stroke-linecap="round"><g transform="translate(543.2420966926503 39.685638577272584) rotate(0 78.16164303464268 0.32428617390837644)"><path d="M-0.24 0.61 C26.2 0.5, 131.98 -0.43, 158.15 -0.4 M-1.82 -0.12 C24.55 -0.06, 130.64 1.19, 157.47 1.03" stroke="#000000" stroke-width="1" fill="none"></path></g><g transform="translate(543.2420966926503 39.685638577272584) rotate(0 78.16164303464268 0.32428617390837644)"><path d="M130.26 12.06 C136.2 7.13, 145.51 7.63, 157.65 3 M129.19 11.65 C136.37 8.77, 144.45 5.22, 156.62 0.88" stroke="#000000" stroke-width="1" fill="none"></path></g><g transform="translate(543.2420966926503 39.685638577272584) rotate(0 78.16164303464268 0.32428617390837644)"><path d="M130.34 -8.46 C136.31 -8.07, 145.59 -2.25, 157.65 3 M129.28 -8.87 C136.31 -6.21, 144.36 -4.23, 156.62 0.88" stroke="#000000" stroke-width="1" fill="none"></path></g></g><mask></mask><g stroke-linecap="round"><g transform="translate(430.7428302540716 28.42681702992661) rotate(0 -63.15340924178628 -0.6118767585704177)"><path d="M0.9 0.58 C-20.3 0.31, -106.17 -1.46, -127.2 -1.81 M-0.09 -0.16 C-20.9 -0.25, -103.98 -0.5, -124.89 -0.51" stroke="#000000" stroke-width="1" fill="none"></path></g><g transform="translate(430.7428302540716 28.42681702992661) rotate(0 -63.15340924178628 -0.6118767585704177)"><path d="M-95.71 -11.97 C-105.92 -5.58, -113.83 -5.5, -124.41 -1.74 M-96 -10.49 C-105.68 -7.56, -115.45 -3.73, -125.29 -0.04" stroke="#000000" stroke-width="1" fill="none"></path></g><g transform="translate(430.7428302540716 28.42681702992661) rotate(0 -63.15340924178628 -0.6118767585704177)"><path d="M-95.75 8.55 C-105.92 8.79, -113.81 2.73, -124.41 -1.74 M-96.04 10.03 C-105.54 5.93, -115.29 2.74, -125.29 -0.04" stroke="#000000" stroke-width="1" fill="none"></path></g></g><mask></mask><g transform="translate(441.37958719869687 64.36564660586328) rotate(0 68.68333435058594 52)"><text x="0" y="0" font-family="Virgil, Segoe UI Emoji" font-size="20px" fill="#000000" text-anchor="start" style="white-space: pre;" direction="ltr" dominant-baseline="text-before-edge">+ adapters</text><text x="0" y="26" font-family="Virgil, Segoe UI Emoji" font-size="20px" fill="#000000" text-anchor="start" style="white-space: pre;" direction="ltr" dominant-baseline="text-before-edge">+ drivers</text><text x="0" y="52" font-family="Virgil, Segoe UI Emoji" font-size="20px" fill="#000000" text-anchor="start" style="white-space: pre;" direction="ltr" dominant-baseline="text-before-edge">+ integrations</text><text x="0" y="78" font-family="Virgil, Segoe UI Emoji" font-size="20px" fill="#000000" text-anchor="start" style="white-space: pre;" direction="ltr" dominant-baseline="text-before-edge">...</text></g><g transform="translate(715.5715439934853 60.22913001628683) rotate(0 71.78333282470703 52)"><text x="0" y="0" font-family="Virgil, Segoe UI Emoji" font-size="20px" fill="#000000" text-anchor="start" style="white-space: pre;" direction="ltr" dominant-baseline="text-before-edge">+ storage</text><text x="0" y="26" font-family="Virgil, Segoe UI Emoji" font-size="20px" fill="#000000" text-anchor="start" style="white-space: pre;" direction="ltr" dominant-baseline="text-before-edge">+ network</text><text x="0" y="52" font-family="Virgil, Segoe UI Emoji" font-size="20px" fill="#000000" text-anchor="start" style="white-space: pre;" direction="ltr" dominant-baseline="text-before-edge">+ side effects</text><text x="0" y="78" font-family="Virgil, Segoe UI Emoji" font-size="20px" fill="#000000" text-anchor="start" style="white-space: pre;" direction="ltr" dominant-baseline="text-before-edge">...</text></g><g transform="translate(233.96282677850172 55.50168248534192) rotate(0 60.96666717529297 52)"><text x="0" y="0" font-family="Virgil, Segoe UI Emoji" font-size="20px" fill="#000000" text-anchor="start" style="white-space: pre;" direction="ltr" dominant-baseline="text-before-edge">+ interfaces</text><text x="0" y="26" font-family="Virgil, Segoe UI Emoji" font-size="20px" fill="#000000" text-anchor="start" style="white-space: pre;" direction="ltr" dominant-baseline="text-before-edge">+ tests</text><text x="0" y="52" font-family="Virgil, Segoe UI Emoji" font-size="20px" fill="#000000" text-anchor="start" style="white-space: pre;" direction="ltr" dominant-baseline="text-before-edge">+ DI</text><text x="0" y="78" font-family="Virgil, Segoe UI Emoji" font-size="20px" fill="#000000" text-anchor="start" style="white-space: pre;" direction="ltr" dominant-baseline="text-before-edge">...</text></g><g transform="translate(10 56.683544368078174) rotate(0 79.64167022705078 52)"><text x="0" y="0" font-family="Virgil, Segoe UI Emoji" font-size="20px" fill="#000000" text-anchor="start" style="white-space: pre;" direction="ltr" dominant-baseline="text-before-edge">+ functionality</text><text x="0" y="26" font-family="Virgil, Segoe UI Emoji" font-size="20px" fill="#000000" text-anchor="start" style="white-space: pre;" direction="ltr" dominant-baseline="text-before-edge">+ bootstrapping</text><text x="0" y="52" font-family="Virgil, Segoe UI Emoji" font-size="20px" fill="#000000" text-anchor="start" style="white-space: pre;" direction="ltr" dominant-baseline="text-before-edge">+ implementation</text><text x="0" y="78" font-family="Virgil, Segoe UI Emoji" font-size="20px" fill="#000000" text-anchor="start" style="white-space: pre;" direction="ltr" dominant-baseline="text-before-edge">...</text></g><g stroke-linecap="round"><g transform="translate(86.2300914364821 26.682102237785102) rotate(0 82.45679554332827 1.4076355098491717)"><path d="M1.15 1.03 C28.23 0.98, 135.12 0.93, 162.31 0.9 M0.3 0.52 C27.77 1.16, 137.3 2.04, 164.61 2.29" stroke="#000000" stroke-width="1" fill="none"></path></g><g transform="translate(86.2300914364821 26.682102237785102) rotate(0 82.45679554332827 1.4076355098491717)"><path d="M138.05 11 C143.94 11.13, 152.05 6.89, 163.71 1.66 M137.06 12.94 C143.21 9.06, 148.45 6.78, 164 3.14" stroke="#000000" stroke-width="1" fill="none"></path></g><g transform="translate(86.2300914364821 26.682102237785102) rotate(0 82.45679554332827 1.4076355098491717)"><path d="M138.23 -9.52 C144.27 -3.45, 152.33 -1.76, 163.71 1.66 M137.24 -7.58 C143.53 -6.69, 148.73 -4.21, 164 3.14" stroke="#000000" stroke-width="1" fill="none"></path></g></g><mask></mask></svg>