<svg version="1.1" xmlns="http://www.w3.org/2000/svg" viewBox="0 0 869.3896821107493 180.513051599768" width="869.3896821107493" height="180.513051599768">
  <!-- svg-source:excalidraw -->
  
  <defs>
    <style class="style-fonts">
      @font-face {
        font-family: "Virgil";
        src: url("https://excalidraw.com/Virgil.woff2");
      }
      @font-face {
        font-family: "Cascadia";
        src: url("https://excalidraw.com/Cascadia.woff2");
      }
    </style>
  </defs>
  <rect x="0" y="0" width="869.3896821107493" height="180.513051599768" fill="#ffffff"></rect><g transform="translate(258.78192631596096 19.829507231689945) rotate(0 19.5 13)"><text x="0" y="18" font-family="Virgil, Segoe UI Emoji" font-size="20px" fill="#000000" text-anchor="start" style="white-space: pre;" direction="ltr">API</text></g><g transform="translate(33.04630671335474 15.102059700745144) rotate(0 23 13)"><text x="0" y="18" font-family="Virgil, Segoe UI Emoji" font-size="20px" fill="#000000" text-anchor="start" style="white-space: pre;" direction="ltr">Core</text></g><g transform="translate(442.5614490814331 15.692990642113159) rotate(0 56.5 13)"><text x="0" y="18" font-family="Virgil, Segoe UI Emoji" font-size="20px" fill="#000000" text-anchor="start" style="white-space: pre;" direction="ltr">Integration</text></g><g transform="translate(713.207820228013 12.147404993904729) rotate(0 56.5 13)"><text x="0" y="18" font-family="Virgil, Segoe UI Emoji" font-size="20px" fill="#000000" text-anchor="start" style="white-space: pre;" direction="ltr">Environment</text></g><g stroke-linecap="round"><g transform="translate(703.7529251661236 9.328786166543182) rotate(0 -72.33078360906734 1.582017691910778)"><path d="M0.16 1.13 C-23.65 1.3, -119.79 1.14, -143.58 1.03 M-1.21 0.67 C-25.17 1.03, -121.18 2.36, -144.82 2.49" stroke="#000000" stroke-width="1" fill="none"></path></g><g transform="translate(703.7529251661236 9.328786166543182) rotate(0 -72.33078360906734 1.582017691910778)"><path d="M-114.86 -9.01 C-123.7 -4.73, -131.32 -2.33, -144.58 3 M-117.5 -8.63 C-125.91 -5.13, -133.8 -1.93, -145.26 1.88" stroke="#000000" stroke-width="1" fill="none"></path></g><g transform="translate(703.7529251661236 9.328786166543182) rotate(0 -72.33078360906734 1.582017691910778)"><path d="M-114.65 11.51 C-123.54 10.88, -131.21 8.38, -144.58 3 M-117.29 11.89 C-125.94 9.28, -133.89 6.37, -145.26 1.88" stroke="#000000" stroke-width="1" fill="none"></path></g></g><mask></mask><g stroke-linecap="round"><g transform="translate(564.2932230032571 41.82998794178741) rotate(0 72.627928469523 -1.2753961212061995)"><path d="M-0.24 0.61 C24.36 0.04, 122.76 -2.73, 147.08 -3.16 M-1.82 -0.12 C22.7 -0.52, 121.42 -1.12, 146.41 -1.73" stroke="#000000" stroke-width="1" fill="none"></path></g><g transform="translate(564.2932230032571 41.82998794178741) rotate(0 72.627928469523 -1.2753961212061995)"><path d="M119.38 9.81 C125.28 4.75, 134.53 5.12, 146.58 0.24 M118.31 9.4 C125.45 6.39, 133.47 2.69, 145.55 -1.88" stroke="#000000" stroke-width="1" fill="none"></path></g><g transform="translate(564.2932230032571 41.82998794178741) rotate(0 72.627928469523 -1.2753961212061995)"><path d="M119.09 -10.71 C125.1 -10.45, 134.43 -4.76, 146.58 0.24 M118.02 -11.12 C125.11 -8.6, 133.21 -6.75, 145.55 -1.88" stroke="#000000" stroke-width="1" fill="none"></path></g></g><mask></mask><g stroke-linecap="round"><g transform="translate(430.7428302540716 30.328470065452052) rotate(0 -62.27007603560952 -0.5032471584016207)"><path d="M0.9 0.58 C-20.01 0.35, -104.69 -1.28, -125.44 -1.59 M-0.09 -0.16 C-20.61 -0.22, -102.51 -0.32, -123.12 -0.3" stroke="#000000" stroke-width="1" fill="none"></path></g><g transform="translate(430.7428302540716 30.328470065452052) rotate(0 -62.27007603560952 -0.5032471584016207)"><path d="M-93.96 -11.8 C-104.16 -5.4, -112.07 -5.3, -122.64 -1.52 M-94.25 -10.32 C-103.93 -7.38, -113.69 -3.52, -123.52 0.18" stroke="#000000" stroke-width="1" fill="none"></path></g><g transform="translate(430.7428302540716 30.328470065452052) rotate(0 -62.27007603560952 -0.5032471584016207)"><path d="M-93.96 8.72 C-104.14 8.98, -112.04 2.93, -122.64 -1.52 M-94.26 10.2 C-103.76 6.12, -113.52 2.94, -123.52 0.18" stroke="#000000" stroke-width="1" fill="none"></path></g></g><mask></mask><g transform="translate(441.37958719869687 66.513051599768) rotate(0 62 52)"><text x="0" y="18" font-family="Virgil, Segoe UI Emoji" font-size="20px" fill="#000000" text-anchor="start" style="white-space: pre;" direction="ltr">+ extensions</text><text x="0" y="44" font-family="Virgil, Segoe UI Emoji" font-size="20px" fill="#000000" text-anchor="start" style="white-space: pre;" direction="ltr">+ drivers</text><text x="0" y="70" font-family="Virgil, Segoe UI Emoji" font-size="20px" fill="#000000" text-anchor="start" style="white-space: pre;" direction="ltr">+ adapters</text><text x="0" y="96" font-family="Virgil, Segoe UI Emoji" font-size="20px" fill="#000000" text-anchor="start" style="white-space: pre;" direction="ltr">...</text></g><g transform="translate(714.3896821107493 64.14932783429572) rotate(0 72.5 52)"><text x="0" y="18" font-family="Virgil, Segoe UI Emoji" font-size="20px" fill="#000000" text-anchor="start" style="white-space: pre;" direction="ltr">+ storage</text><text x="0" y="44" font-family="Virgil, Segoe UI Emoji" font-size="20px" fill="#000000" text-anchor="start" style="white-space: pre;" direction="ltr">+ network</text><text x="0" y="70" font-family="Virgil, Segoe UI Emoji" font-size="20px" fill="#000000" text-anchor="start" style="white-space: pre;" direction="ltr">+ side effects</text><text x="0" y="96" font-family="Virgil, Segoe UI Emoji" font-size="20px" fill="#000000" text-anchor="start" style="white-space: pre;" direction="ltr">...</text></g><g transform="translate(233.96282677850172 57.649087479246646) rotate(0 61.5 52)"><text x="0" y="18" font-family="Virgil, Segoe UI Emoji" font-size="20px" fill="#000000" text-anchor="start" style="white-space: pre;" direction="ltr">+ interfaces</text><text x="0" y="44" font-family="Virgil, Segoe UI Emoji" font-size="20px" fill="#000000" text-anchor="start" style="white-space: pre;" direction="ltr">+ tests</text><text x="0" y="70" font-family="Virgil, Segoe UI Emoji" font-size="20px" fill="#000000" text-anchor="start" style="white-space: pre;" direction="ltr">+ DI</text><text x="0" y="96" font-family="Virgil, Segoe UI Emoji" font-size="20px" fill="#000000" text-anchor="start" style="white-space: pre;" direction="ltr">...</text></g><g transform="translate(10 58.8309493619829) rotate(0 80 52)"><text x="0" y="18" font-family="Virgil, Segoe UI Emoji" font-size="20px" fill="#000000" text-anchor="start" style="white-space: pre;" direction="ltr">+ functionality</text><text x="0" y="44" font-family="Virgil, Segoe UI Emoji" font-size="20px" fill="#000000" text-anchor="start" style="white-space: pre;" direction="ltr">+ bootstrapping</text><text x="0" y="70" font-family="Virgil, Segoe UI Emoji" font-size="20px" fill="#000000" text-anchor="start" style="white-space: pre;" direction="ltr">+ implementation</text><text x="0" y="96" font-family="Virgil, Segoe UI Emoji" font-size="20px" fill="#000000" text-anchor="start" style="white-space: pre;" direction="ltr">...</text></g><g stroke-linecap="round"><g transform="translate(86.2300914364821 28.82950723168983) rotate(0 82.45679554332827 1.4076355098491717)"><path d="M1.15 1.03 C28.23 0.98, 135.12 0.93, 162.31 0.9 M0.3 0.52 C27.77 1.16, 137.3 2.04, 164.61 2.29" stroke="#000000" stroke-width="1" fill="none"></path></g><g transform="translate(86.2300914364821 28.82950723168983) rotate(0 82.45679554332827 1.4076355098491717)"><path d="M138.05 11 C143.94 11.13, 152.05 6.89, 163.71 1.66 M137.06 12.94 C143.21 9.06, 148.45 6.78, 164 3.14" stroke="#000000" stroke-width="1" fill="none"></path></g><g transform="translate(86.2300914364821 28.82950723168983) rotate(0 82.45679554332827 1.4076355098491717)"><path d="M138.23 -9.52 C144.27 -3.45, 152.33 -1.76, 163.71 1.66 M137.24 -7.58 C143.53 -6.69, 148.73 -4.21, 164 3.14" stroke="#000000" stroke-width="1" fill="none"></path></g></g><mask></mask></svg>