<svg version="1.1" xmlns="http://www.w3.org/2000/svg" viewBox="0 0 1428.4886619870788 475.9695567198696" width="1428.4886619870788" height="475.9695567198696">
  <!-- svg-source:excalidraw -->
  
  <defs>
    <style class="style-fonts">
      @font-face {
        font-family: "Virgil";
        src: url("https://excalidraw.com/Virgil.woff2");
      }
      @font-face {
        font-family: "Cascadia";
        src: url("https://excalidraw.com/Cascadia.woff2");
      }
    </style>
  </defs>
  <rect x="0" y="0" width="1428.4886619870788" height="475.9695567198696" fill="#ffffff"></rect><g transform="translate(11.48209058968564 136.45922145276882) rotate(0 67.13333129882812 12.5)"><text x="0" y="0" font-family="Virgil, Segoe UI Emoji" font-size="20px" fill="#000000" text-anchor="start" style="white-space: pre;" direction="ltr" dominant-baseline="text-before-edge">Request path</text></g><g stroke-linecap="round"><g transform="translate(11.069927751272871 169.90200983384136) rotate(0 87.97102711468017 0.2197955141472221)"><path d="M-1.07 -0.88 C28.19 -1.02, 145.37 -0.63, 174.65 -0.47 M0.57 1.27 C30.31 1.29, 148.19 1.55, 177.01 1.01" stroke="#000000" stroke-width="1" fill="none"></path></g><g transform="translate(11.069927751272871 169.90200983384136) rotate(0 87.97102711468017 0.2197955141472221)"><path d="M147.42 10.33 C154.91 8.24, 162.13 7.73, 177.87 0.6 M149.5 12.09 C157.12 9.34, 165.73 5.87, 176.47 1.98" stroke="#000000" stroke-width="1" fill="none"></path></g><g transform="translate(11.069927751272871 169.90200983384136) rotate(0 87.97102711468017 0.2197955141472221)"><path d="M147.28 -10.19 C154.87 -7.72, 162.11 -3.67, 177.87 0.6 M149.37 -8.43 C157.05 -5.07, 165.71 -2.42, 176.47 1.98" stroke="#000000" stroke-width="1" fill="none"></path></g></g><mask></mask><g stroke-linecap="round" transform="translate(356.5857603486429 155.95994251791512) rotate(0 101 17.5)"><path d="M8.75 0 M8.75 0 C54.33 -2.63, 97.72 -0.7, 193.25 0 M8.75 0 C64.27 -0.34, 118.49 0.25, 193.25 0 M193.25 0 C197.67 -0.54, 201.49 1.76, 202 8.75 M193.25 0 C197.57 -0.98, 200.48 1.41, 202 8.75 M202 8.75 C201.44 15.77, 203.49 18.54, 202 26.25 M202 8.75 C201.65 12.52, 202.65 17.13, 202 26.25 M202 26.25 C201.18 32.34, 199.93 33.37, 193.25 35 M202 26.25 C202.68 32.45, 200.01 33.22, 193.25 35 M193.25 35 C128.15 35.92, 58.06 33.36, 8.75 35 M193.25 35 C139.2 34.93, 85.22 35.14, 8.75 35 M8.75 35 C1.98 34.84, 1.3 31.12, 0 26.25 M8.75 35 C3.12 36.72, 0.45 33.49, 0 26.25 M0 26.25 C-0.19 20.89, 0.07 18.3, 0 8.75 M0 26.25 C-0.44 19.78, -0.33 12.02, 0 8.75 M0 8.75 C1.91 1.27, 4.85 1.99, 8.75 0 M0 8.75 C-2.18 3.71, 2.66 2.03, 8.75 0" stroke="#000000" stroke-width="1" fill="none"></path></g><g transform="translate(362.310758822764 160.95994251791512) rotate(0 95.2750015258789 12.5)"><text x="95.2750015258789" y="0" font-family="Virgil, Segoe UI Emoji" font-size="20px" fill="#000000" text-anchor="middle" style="white-space: pre;" direction="ltr" dominant-baseline="text-before-edge">Project B Renderer</text></g><g stroke-linecap="round" transform="translate(355.4038984659069 115.36660802605843) rotate(0 102 17.5)"><path d="M8.75 0 M8.75 0 C73.5 1.34, 139.07 -2.05, 195.25 0 M8.75 0 C62.76 0.95, 116.19 -0.7, 195.25 0 M195.25 0 C199.73 0.91, 204.24 1.67, 204 8.75 M195.25 0 C200.24 -1.69, 206.12 3.44, 204 8.75 M204 8.75 C204.92 15.41, 205.49 19.82, 204 26.25 M204 8.75 C203.48 12.81, 203.42 18.15, 204 26.25 M204 26.25 C202.86 33.42, 202.84 34.44, 195.25 35 M204 26.25 C205.64 33.43, 201.27 36.88, 195.25 35 M195.25 35 C129.39 33.87, 64.84 34.12, 8.75 35 M195.25 35 C140.49 33.58, 87.54 33.67, 8.75 35 M8.75 35 C3.56 34.42, 0.83 31.65, 0 26.25 M8.75 35 C4.11 35.93, -0.78 31.57, 0 26.25 M0 26.25 C-0.32 18.82, -1.12 11.59, 0 8.75 M0 26.25 C0.6 19.23, 0.03 12.79, 0 8.75 M0 8.75 C-0.17 2.41, 2.36 -0.13, 8.75 0 M0 8.75 C-2.22 3.79, 4.27 -2.06, 8.75 0" stroke="#000000" stroke-width="1" fill="none"></path></g><g transform="translate(362.8372328164928 120.36660802605843) rotate(0 94.56666564941406 12.5)"><text x="94.56666564941406" y="0" font-family="Virgil, Segoe UI Emoji" font-size="20px" fill="#000000" text-anchor="middle" style="white-space: pre;" direction="ltr" dominant-baseline="text-before-edge">Project A Renderer</text></g><g stroke-linecap="round" transform="translate(357.76762223137916 196.91507793485346) rotate(0 99.5 17.5)"><path d="M8.75 0 M8.75 0 C45.75 -0.13, 81.67 0.46, 190.25 0 M8.75 0 C62.21 -0.34, 115.45 -0.26, 190.25 0 M190.25 0 C197.12 0.81, 198.32 2.47, 199 8.75 M190.25 0 C197.79 1.9, 200.91 2.69, 199 8.75 M199 8.75 C200.11 11.61, 199.55 18.38, 199 26.25 M199 8.75 C198.9 12.65, 198.73 16.94, 199 26.25 M199 26.25 C197.07 32.85, 197.26 33.21, 190.25 35 M199 26.25 C199.97 33.06, 196.53 34.17, 190.25 35 M190.25 35 C145.03 36.14, 101.45 34.75, 8.75 35 M190.25 35 C134.74 35.79, 77.78 35.1, 8.75 35 M8.75 35 C1.21 35.73, 0 33.45, 0 26.25 M8.75 35 C5.04 37.11, -0.08 33.24, 0 26.25 M0 26.25 C0.5 21.14, 0.44 14.91, 0 8.75 M0 26.25 C0.68 20.28, 0.01 13.34, 0 8.75 M0 8.75 C-1.85 4.87, 2.28 1.69, 8.75 0 M0 8.75 C-1.08 1.57, 4.91 -1.29, 8.75 0" stroke="#000000" stroke-width="1" fill="none"></path></g><g transform="translate(362.817625283137 201.91507793485346) rotate(0 94.44999694824219 12.5)"><text x="94.44999694824219" y="0" font-family="Virgil, Segoe UI Emoji" font-size="20px" fill="#000000" text-anchor="middle" style="white-space: pre;" direction="ltr" dominant-baseline="text-before-edge">Project C Renderer</text></g><g stroke-linecap="round"><g transform="translate(194.07975147242087 170.7332160521172) rotate(0 75.63683993381602 20.175617863648085)"><path d="M-0.05 -0.2 C25.29 6.36, 127.38 33.68, 152.81 40.45 M-1.54 -1.34 C23.65 5.89, 126.66 34.57, 152.27 41.69" stroke="#000000" stroke-width="1" fill="none"></path></g><g transform="translate(194.07975147242087 170.7332160521172) rotate(0 75.63683993381602 20.175617863648085)"><path d="M122.03 45.29 C132.25 44.06, 143.02 41.18, 153.33 42.24 M121.66 43.58 C130.15 44.16, 135.68 42.98, 151.36 42.35" stroke="#000000" stroke-width="1" fill="none"></path></g><g transform="translate(194.07975147242087 170.7332160521172) rotate(0 75.63683993381602 20.175617863648085)"><path d="M127.54 25.52 C135.94 31.44, 144.72 35.73, 153.33 42.24 M127.16 23.81 C134.48 29.04, 138.7 32.54, 151.36 42.35" stroke="#000000" stroke-width="1" fill="none"></path></g></g><mask></mask><g transform="translate(205.30743935841429 13.545585648208316) rotate(0 67.13333129882812 25)"><text x="0" y="0" font-family="Virgil, Segoe UI Emoji" font-size="20px" fill="#000000" text-anchor="start" style="white-space: pre;" direction="ltr" dominant-baseline="text-before-edge">Request path</text><text x="0" y="25" font-family="Virgil, Segoe UI Emoji" font-size="20px" fill="#000000" text-anchor="start" style="white-space: pre;" direction="ltr" dominant-baseline="text-before-edge">of project.</text></g><g stroke-linecap="round" transform="translate(743.6455269447335 174.82390663843626) rotate(0 118 17.5)"><path d="M8.75 0 M8.75 0 C92.59 -0.32, 173.51 -0.31, 227.25 0 M8.75 0 C90.86 -1.45, 172.71 -2.56, 227.25 0 M227.25 0 C232.75 -0.54, 235.08 2.65, 236 8.75 M227.25 0 C233.63 0.29, 236.41 4.43, 236 8.75 M236 8.75 C236.8 16.38, 236.63 22.54, 236 26.25 M236 8.75 C235.52 13.83, 236.39 21.23, 236 26.25 M236 26.25 C236.68 30.38, 232.51 34.75, 227.25 35 M236 26.25 C238.21 30.18, 233.76 35.51, 227.25 35 M227.25 35 C150.39 36.68, 70.99 35.5, 8.75 35 M227.25 35 C174.7 34.11, 122.37 33.92, 8.75 35 M8.75 35 C2.09 35.75, -0.96 31.8, 0 26.25 M8.75 35 C2.05 36.45, -1.76 33.67, 0 26.25 M0 26.25 C0.6 21.29, 1.15 16.07, 0 8.75 M0 26.25 C-0.66 19.93, 0.68 15.61, 0 8.75 M0 8.75 C0.81 3.86, 3.95 -1.22, 8.75 0 M0 8.75 C-1.04 4.07, 1 1.05, 8.75 0" stroke="#000000" stroke-width="1" fill="none"></path></g><g transform="translate(750.0288582435617 179.82390663843626) rotate(0 111.61666870117188 12.5)"><text x="111.61666870117188" y="0" font-family="Virgil, Segoe UI Emoji" font-size="20px" fill="#000000" text-anchor="middle" style="white-space: pre;" direction="ltr" dominant-baseline="text-before-edge">Project C's renderer A</text></g><g stroke-linecap="round" transform="translate(744.2364578861022 215.30267612214982) rotate(0 117.5 17.5)"><path d="M8.75 0 M8.75 0 C76.86 0.34, 146.93 1.41, 226.25 0 M8.75 0 C91.29 0.87, 173.13 1.31, 226.25 0 M226.25 0 C232.17 1.37, 235.77 2.77, 235 8.75 M226.25 0 C232.61 -1.41, 237.11 4.1, 235 8.75 M235 8.75 C235.97 15.71, 235.79 19.12, 235 26.25 M235 8.75 C235.5 15.19, 234.04 20.58, 235 26.25 M235 26.25 C233.89 31.97, 230.22 34.04, 226.25 35 M235 26.25 C234.5 30.25, 233.52 34.32, 226.25 35 M226.25 35 C149.56 31.85, 73.62 32.48, 8.75 35 M226.25 35 C152.34 35.72, 78.31 36.43, 8.75 35 M8.75 35 C3.69 35.32, 0.18 31.53, 0 26.25 M8.75 35 C0.89 35.66, -1.38 31.26, 0 26.25 M0 26.25 C-0.96 19.2, -0.37 14.11, 0 8.75 M0 26.25 C-0.06 22.2, -0.25 18.4, 0 8.75 M0 8.75 C-1.33 2.7, 3.68 -0.29, 8.75 0 M0 8.75 C1.61 4.39, 3.59 2.19, 8.75 0" stroke="#000000" stroke-width="1" fill="none"></path></g><g transform="translate(749.41146093786 220.30267612214982) rotate(0 112.32499694824219 12.5)"><text x="112.32499694824219" y="0" font-family="Virgil, Segoe UI Emoji" font-size="20px" fill="#000000" text-anchor="middle" style="white-space: pre;" direction="ltr" dominant-baseline="text-before-edge">Project C's renderer B</text></g><g stroke-linecap="round" transform="translate(744.8273888274703 256.71366802117257) rotate(0 116.5 17.5)"><path d="M8.75 0 M8.75 0 C68.75 -0.93, 130.53 0.13, 224.25 0 M8.75 0 C82.49 2.29, 154.35 1.3, 224.25 0 M224.25 0 C230.75 0.59, 234 2.77, 233 8.75 M224.25 0 C229.08 -0.72, 234.31 4.96, 233 8.75 M233 8.75 C233.78 13.76, 231.41 19.54, 233 26.25 M233 8.75 C233.26 12.5, 232.14 15.34, 233 26.25 M233 26.25 C233.94 33.99, 228.73 36.44, 224.25 35 M233 26.25 C235.09 32.89, 228.28 34.42, 224.25 35 M224.25 35 C176.04 34.39, 124.51 32.47, 8.75 35 M224.25 35 C155.9 34.48, 86.68 35.18, 8.75 35 M8.75 35 C4.82 34.29, 0.74 32.53, 0 26.25 M8.75 35 C2.75 36.59, 0.87 33.7, 0 26.25 M0 26.25 C-1.43 19.21, 0.42 12.5, 0 8.75 M0 26.25 C-0.35 21.77, 0.18 18.07, 0 8.75 M0 8.75 C-0.36 4.85, 4.19 -1.23, 8.75 0 M0 8.75 C1.14 0.73, 4.6 1.29, 8.75 0" stroke="#000000" stroke-width="1" fill="none"></path></g><g transform="translate(749.8273888274703 261.71366802117257) rotate(0 111.5 12.5)"><text x="111.5" y="0" font-family="Virgil, Segoe UI Emoji" font-size="20px" fill="#000000" text-anchor="middle" style="white-space: pre;" direction="ltr" dominant-baseline="text-before-edge">Project C's renderer C</text></g><g stroke-linecap="round"><g transform="translate(566.0406554105323 217.43619660095374) rotate(0 86.56161674157784 -15.436509559706622)"><path d="M0.23 -1.11 C28.85 -6.08, 143.24 -25.14, 171.85 -30.16 M-1.11 0.92 C27.9 -4.34, 145.58 -26.64, 174.24 -31.79" stroke="#000000" stroke-width="1" fill="none"></path></g><g transform="translate(566.0406554105323 217.43619660095374) rotate(0 86.56161674157784 -15.436509559706622)"><path d="M146.54 -17.6 C157.97 -22.27, 164.15 -26.88, 175.48 -33.17 M149.24 -17.42 C158.34 -22.92, 167.72 -27.11, 174.59 -32.44" stroke="#000000" stroke-width="1" fill="none"></path></g><g transform="translate(566.0406554105323 217.43619660095374) rotate(0 86.56161674157784 -15.436509559706622)"><path d="M142.8 -37.78 C155.32 -36.23, 162.66 -34.61, 175.48 -33.17 M145.51 -37.6 C155.89 -35.61, 166.66 -32.32, 174.59 -32.44" stroke="#000000" stroke-width="1" fill="none"></path></g></g><mask></mask><g stroke-linecap="round" transform="translate(1176.2069760261668 161.8692519315963) rotate(0 121.140842980456 74.45729861237783)"><path d="M32 0 M32 0 C101.79 -0.14, 171.35 2.01, 210.28 0 M32 0 C83.78 0.12, 133.68 -0.54, 210.28 0 M210.28 0 C230.13 -1.8, 243.51 11.3, 242.28 32 M210.28 0 C232.93 0.1, 242.48 12.94, 242.28 32 M242.28 32 C240.73 57.27, 241.29 83.58, 242.28 116.91 M242.28 32 C242.18 62.2, 242.2 92.65, 242.28 116.91 M242.28 116.91 C241.06 137.18, 231.42 147.83, 210.28 148.91 M242.28 116.91 C243.78 139.02, 230.89 147.19, 210.28 148.91 M210.28 148.91 C147.02 149.78, 87.21 149.5, 32 148.91 M210.28 148.91 C145.23 150.31, 80.14 150.4, 32 148.91 M32 148.91 C8.86 150.76, -1.17 139.08, 0 116.91 M32 148.91 C11.94 149.07, -1.25 139.78, 0 116.91 M0 116.91 C-2.19 94.01, -0.33 67.81, 0 32 M0 116.91 C1.38 95.9, 0.93 77.11, 0 32 M0 32 C1.04 12.48, 9.39 -0.31, 32 0 M0 32 C1.14 11.07, 9.65 -1.11, 32 0" stroke="#000000" stroke-width="1" fill="none"></path></g><g transform="translate(1196.2986280326813 173.68787075895796) rotate(0 86.74166870117199 62.5)"><text x="0" y="0" font-family="Virgil, Segoe UI Emoji" font-size="20px" fill="#000000" text-anchor="start" style="white-space: pre;" direction="ltr" dominant-baseline="text-before-edge">Project C files:</text><text x="0" y="25" font-family="Virgil, Segoe UI Emoji" font-size="20px" fill="#000000" text-anchor="start" style="white-space: pre;" direction="ltr" dominant-baseline="text-before-edge">+ src/[...]</text><text x="0" y="50" font-family="Virgil, Segoe UI Emoji" font-size="20px" fill="#000000" text-anchor="start" style="white-space: pre;" direction="ltr" dominant-baseline="text-before-edge">+ README.md</text><text x="0" y="75" font-family="Virgil, Segoe UI Emoji" font-size="20px" fill="#000000" text-anchor="start" style="white-space: pre;" direction="ltr" dominant-baseline="text-before-edge">+ CHANGELOG.md</text><text x="0" y="100" font-family="Virgil, Segoe UI Emoji" font-size="20px" fill="#000000" text-anchor="start" style="white-space: pre;" direction="ltr" dominant-baseline="text-before-edge">+ [...]</text></g><g stroke-linecap="round"><g transform="translate(989.1004220066236 234.28202359639022) rotate(0 85.18480018633102 0.1357381200831469)"><path d="M1.16 0.9 C29.34 1.18, 141.96 1.08, 170.06 0.85 M0.31 0.33 C28.35 0.35, 141.5 -0.85, 169.68 -0.8" stroke="#000000" stroke-width="1" fill="none"></path></g><g transform="translate(989.1004220066236 234.28202359639022) rotate(0 85.18480018633102 0.1357381200831469)"><path d="M143.05 11.42 C153.8 6.68, 162.3 2.33, 170.6 -1.84 M142.17 10.61 C147.42 7.51, 153.55 6.14, 170.56 -1.57" stroke="#000000" stroke-width="1" fill="none"></path></g><g transform="translate(989.1004220066236 234.28202359639022) rotate(0 85.18480018633102 0.1357381200831469)"><path d="M142.94 -9.1 C153.6 -6.04, 162.14 -2.6, 170.6 -1.84 M142.07 -9.92 C147.44 -8.58, 153.6 -5.53, 170.56 -1.57" stroke="#000000" stroke-width="1" fill="none"></path></g></g><mask></mask><g transform="translate(563.4115898274695 11.772792824104613) rotate(0 82.53333282470703 37.5)"><text x="0" y="0" font-family="Virgil, Segoe UI Emoji" font-size="20px" fill="#000000" text-anchor="start" style="white-space: pre;" direction="ltr" dominant-baseline="text-before-edge">Request path of</text><text x="0" y="25" font-family="Virgil, Segoe UI Emoji" font-size="20px" fill="#000000" text-anchor="start" style="white-space: pre;" direction="ltr" dominant-baseline="text-before-edge">a project C</text><text x="0" y="50" font-family="Virgil, Segoe UI Emoji" font-size="20px" fill="#000000" text-anchor="start" style="white-space: pre;" direction="ltr" dominant-baseline="text-before-edge">renderer.</text></g><g transform="translate(988.2909366711181 10) rotate(0 83.3499984741211 25)"><text x="0" y="0" font-family="Virgil, Segoe UI Emoji" font-size="20px" fill="#000000" text-anchor="start" style="white-space: pre;" direction="ltr" dominant-baseline="text-before-edge">Render path via</text><text x="0" y="25" font-family="Virgil, Segoe UI Emoji" font-size="20px" fill="#000000" text-anchor="start" style="white-space: pre;" direction="ltr" dominant-baseline="text-before-edge">files of projects.</text></g><g transform="translate(367.2225172932683 239.2812052508143) rotate(0 8.225000381469727 12.5)"><text x="0" y="0" font-family="Virgil, Segoe UI Emoji" font-size="20px" fill="#000000" text-anchor="start" style="white-space: pre;" direction="ltr" dominant-baseline="text-before-edge">...</text></g><g transform="translate(755.5121785697786 147.00552816612378) rotate(0 8.225000381469727 12.5)"><text x="0" y="0" font-family="Virgil, Segoe UI Emoji" font-size="20px" fill="#000000" text-anchor="start" style="white-space: pre;" direction="ltr" dominant-baseline="text-before-edge">...</text></g><g transform="translate(756.1031095111466 294.7382635081433) rotate(0 8.225000381469727 12.5)"><text x="0" y="0" font-family="Virgil, Segoe UI Emoji" font-size="20px" fill="#000000" text-anchor="start" style="white-space: pre;" direction="ltr" dominant-baseline="text-before-edge">...</text></g><g transform="translate(1199.8922464785733 318.3755011628666) rotate(0 8.225000381469727 12.5)"><text x="0" y="0" font-family="Virgil, Segoe UI Emoji" font-size="20px" fill="#000000" text-anchor="start" style="white-space: pre;" direction="ltr" dominant-baseline="text-before-edge">...</text></g><g transform="translate(1202.8469011854133 130.45946180781777) rotate(0 8.225000381469727 12.5)"><text x="0" y="0" font-family="Virgil, Segoe UI Emoji" font-size="20px" fill="#000000" text-anchor="start" style="white-space: pre;" direction="ltr" dominant-baseline="text-before-edge">...</text></g><g stroke-linecap="round" transform="translate(354.22203658316994 270.7814456058635) rotate(0 100 17.5)"><path d="M8.75 0 M8.75 0 C56.33 -1.92, 103.64 -1.11, 191.25 0 M8.75 0 C77.98 -1.71, 147.8 -1.91, 191.25 0 M191.25 0 C196.6 -1.21, 200.14 1.58, 200 8.75 M191.25 0 C198.85 0.22, 200.53 3.66, 200 8.75 M200 8.75 C200.68 14.71, 198.75 21.72, 200 26.25 M200 8.75 C200.26 13.84, 199.01 20.38, 200 26.25 M200 26.25 C200 30.8, 195.6 33.85, 191.25 35 M200 26.25 C200.59 31.72, 198.79 34.63, 191.25 35 M191.25 35 C145.25 35.41, 102.22 35.15, 8.75 35 M191.25 35 C136.61 35.19, 83.72 35.59, 8.75 35 M8.75 35 C1.61 33.15, 1.05 30.51, 0 26.25 M8.75 35 C2.91 36.58, 0.21 30.02, 0 26.25 M0 26.25 C0.7 20.95, 0.9 18.05, 0 8.75 M0 26.25 C-0.82 20.53, 0.73 12.37, 0 8.75 M0 8.75 C-1.85 3.82, 2.5 0.36, 8.75 0 M0 8.75 C-0.84 2, 4.51 1.21, 8.75 0" stroke="#000000" stroke-width="1" fill="none"></path></g><g transform="translate(365.7803709337559 275.7814456058635) rotate(0 88.44166564941406 12.5)"><text x="88.44166564941406" y="0" font-family="Virgil, Segoe UI Emoji" font-size="20px" fill="#000000" text-anchor="middle" style="white-space: pre;" direction="ltr" dominant-baseline="text-before-edge">Projects Renderer</text></g><g transform="translate(369.63427385642376 313.0571226905538) rotate(0 8.225000381469727 12.5)"><text x="0" y="0" font-family="Virgil, Segoe UI Emoji" font-size="20px" fill="#000000" text-anchor="start" style="white-space: pre;" direction="ltr" dominant-baseline="text-before-edge">...</text></g><g stroke-linecap="round"><g transform="translate(193.4888205310532 176.05159452443002) rotate(0 73.62166194557977 55.023907735209434)"><path d="M0.43 0.39 C25.27 18.45, 123.55 90.86, 148.04 109.28 M-0.8 -0.44 C24.05 17.67, 122.98 92.22, 147.57 110.49" stroke="#000000" stroke-width="1" fill="none"></path></g><g transform="translate(193.4888205310532 176.05159452443002) rotate(0 73.62166194557977 55.023907735209434)"><path d="M119.51 103.31 C124.11 104, 133.14 105.35, 148.32 112.22 M119 102.67 C126.24 104.28, 135.32 107.55, 147.29 109.67" stroke="#000000" stroke-width="1" fill="none"></path></g><g transform="translate(193.4888205310532 176.05159452443002) rotate(0 73.62166194557977 55.023907735209434)"><path d="M131.81 86.89 C133.87 91.18, 140.23 96.1, 148.32 112.22 M131.3 86.24 C135.14 92.28, 140.85 100.06, 147.29 109.67" stroke="#000000" stroke-width="1" fill="none"></path></g></g><mask></mask><g stroke-linecap="round"><g transform="translate(564.0025207688382 287.1466115016286) rotate(0 39.34023325357134 22.922572466608813)"><path d="M-0.62 1.13 C12.58 8.38, 65.83 36.58, 79.3 44.07 M1.25 0.68 C14.25 8.01, 65.03 37.89, 78.11 45.17" stroke="#000000" stroke-width="1" fill="none"></path></g><g transform="translate(564.0025207688382 287.1466115016286) rotate(0 39.34023325357134 22.922572466608813)"><path d="M50.43 39.24 C56.22 42.52, 68.59 44.19, 79.3 44.61 M49.36 39.18 C58.18 40.71, 69.39 43.23, 77.29 45.29" stroke="#000000" stroke-width="1" fill="none"></path></g><g transform="translate(564.0025207688382 287.1466115016286) rotate(0 39.34023325357134 22.922572466608813)"><path d="M60.65 21.44 C63.39 30.12, 72.64 37.23, 79.3 44.61 M59.58 21.38 C64.95 29.05, 72.67 37.66, 77.29 45.29" stroke="#000000" stroke-width="1" fill="none"></path></g></g><mask></mask><g stroke-linecap="round"><g transform="translate(644.3691287948966 336.1938796351791) rotate(0 -42.11360397119597 31.15693424480162)"><path d="M0.99 -1.14 C-13.29 9.36, -70.77 51.41, -85.22 61.96 M0.05 0.88 C-13.88 11.66, -68.97 53, -82.88 63.45" stroke="#000000" stroke-width="1" fill="none"></path></g><g transform="translate(644.3691287948966 336.1938796351791) rotate(0 -42.11360397119597 31.15693424480162)"><path d="M-68.41 37.13 C-72.4 45.01, -77.56 56.39, -81.55 64.79 M-66.57 38.69 C-71.13 45.63, -76.86 53.05, -82.68 63.02" stroke="#000000" stroke-width="1" fill="none"></path></g><g transform="translate(644.3691287948966 336.1938796351791) rotate(0 -42.11360397119597 31.15693424480162)"><path d="M-56.08 53.53 C-64.1 55.97, -73.44 61.8, -81.55 64.79 M-54.25 55.1 C-62.4 57.15, -71.88 59.58, -82.68 63.02" stroke="#000000" stroke-width="1" fill="none"></path></g></g><mask></mask><g stroke-linecap="round"><g transform="translate(553.9566947655808 397.6506975374592) rotate(0 -118.40082754055584 0.686803508521848)"><path d="M1.16 -0.53 C-38.27 -0.35, -197.19 -0.19, -237 -0.07 M0.31 1.8 C-39.25 2.23, -198.71 1.21, -237.96 1.13" stroke="#000000" stroke-width="1" fill="none"></path></g><g transform="translate(553.9566947655808 397.6506975374592) rotate(0 -118.40082754055584 0.686803508521848)"><path d="M-210.62 -9.07 C-218.44 -7.29, -225.5 -2.36, -238.98 0.95 M-209.08 -8.87 C-220.54 -5.23, -230.66 -0.32, -238.4 0.18" stroke="#000000" stroke-width="1" fill="none"></path></g><g transform="translate(553.9566947655808 397.6506975374592) rotate(0 -118.40082754055584 0.686803508521848)"><path d="M-210.71 11.45 C-218.3 7.77, -225.34 7.24, -238.98 0.95 M-209.17 11.65 C-220.64 7.56, -230.73 4.74, -238.4 0.18" stroke="#000000" stroke-width="1" fill="none"></path></g></g><mask></mask><g stroke-linecap="round"><g transform="translate(310.4931469219323 398.83255942019537) rotate(0 -111.23621028571336 -99.03945433966214)"><path d="M0.9 -0.57 C-36.15 -33.94, -185.96 -166.53, -223.37 -199.82 M-0.09 1.74 C-36.64 -31.46, -184.13 -164.82, -220.97 -198.32" stroke="#000000" stroke-width="1" fill="none"></path></g><g transform="translate(310.4931469219323 398.83255942019537) rotate(0 -111.23621028571336 -99.03945433966214)"><path d="M-194.15 -187.97 C-199.2 -190.48, -205.85 -190.06, -221.67 -199.45 M-193.32 -187.24 C-200.16 -190.01, -206.88 -191.96, -221.65 -198.41" stroke="#000000" stroke-width="1" fill="none"></path></g><g transform="translate(310.4931469219323 398.83255942019537) rotate(0 -111.23621028571336 -99.03945433966214)"><path d="M-207.93 -172.77 C-210.13 -178.58, -213.89 -181.35, -221.67 -199.45 M-207.1 -172.04 C-210.59 -178.29, -214.1 -183.78, -221.65 -198.41" stroke="#000000" stroke-width="1" fill="none"></path></g></g><mask></mask><g transform="translate(338.8578321076004 415.9695567198696) rotate(0 92.90833282470703 25)"><text x="0" y="0" font-family="Virgil, Segoe UI Emoji" font-size="20px" fill="#000000" text-anchor="start" style="white-space: pre;" direction="ltr" dominant-baseline="text-before-edge">Render path based</text><text x="0" y="25" font-family="Virgil, Segoe UI Emoji" font-size="20px" fill="#000000" text-anchor="start" style="white-space: pre;" direction="ltr" dominant-baseline="text-before-edge">on other projects.</text></g><g transform="translate(18.573261886102046 179.0062492312702) rotate(0 8.225000381469727 12.5)"><text x="0" y="0" font-family="Virgil, Segoe UI Emoji" font-size="20px" fill="#000000" text-anchor="start" style="white-space: pre;" direction="ltr" dominant-baseline="text-before-edge">...</text></g></svg>